<svg xmlns="http://www.w3.org/2000/svg" width="640" height="400" viewBox="0 0 640 400" role="img">
<rect width="640" height="400" fill="#f4f7f8"/>
<text x="55" y="54" font-size="15" fill="#355567" font-weight="bold" font-family="Arial,Helvetica,sans-serif">SPARSE LINEAR ALGEBRA</text><rect x="57" y="82" width="247" height="247" fill="white" stroke="#cad6dc"/><rect x="65.0" y="90.0" width="7.5" height="7.5" fill="#355567"/><rect x="77.3" y="90.0" width="7.5" height="7.5" fill="#7d9cab"/><rect x="224.9" y="90.0" width="7.5" height="7.5" fill="#c7d5dc"/><rect x="65.0" y="102.3" width="7.5" height="7.5" fill="#7d9cab"/><rect x="77.3" y="102.3" width="7.5" height="7.5" fill="#355567"/><rect x="89.6" y="102.3" width="7.5" height="7.5" fill="#7d9cab"/><rect x="77.3" y="114.6" width="7.5" height="7.5" fill="#7d9cab"/><rect x="89.6" y="114.6" width="7.5" height="7.5" fill="#355567"/><rect x="101.9" y="114.6" width="7.5" height="7.5" fill="#7d9cab"/><rect x="89.6" y="126.9" width="7.5" height="7.5" fill="#7d9cab"/><rect x="101.9" y="126.9" width="7.5" height="7.5" fill="#355567"/><rect x="114.2" y="126.9" width="7.5" height="7.5" fill="#7d9cab"/><rect x="101.9" y="139.2" width="7.5" height="7.5" fill="#7d9cab"/><rect x="114.2" y="139.2" width="7.5" height="7.5" fill="#355567"/><rect x="126.5" y="139.2" width="7.5" height="7.5" fill="#7d9cab"/><rect x="114.2" y="151.5" width="7.5" height="7.5" fill="#7d9cab"/><rect x="126.5" y="151.5" width="7.5" height="7.5" fill="#355567"/><rect x="138.8" y="151.5" width="7.5" height="7.5" fill="#7d9cab"/><rect x="126.5" y="163.8" width="7.5" height="7.5" fill="#7d9cab"/><rect x="138.8" y="163.8" width="7.5" height="7.5" fill="#355567"/><rect x="151.1" y="163.8" width="7.5" height="7.5" fill="#7d9cab"/><rect x="138.8" y="176.1" width="7.5" height="7.5" fill="#7d9cab"/><rect x="151.1" y="176.1" width="7.5" height="7.5" fill="#355567"/><rect x="163.4" y="176.1" width="7.5" height="7.5" fill="#7d9cab"/><rect x="249.5" y="176.1" width="7.5" height="7.5" fill="#c7d5dc"/><rect x="126.5" y="188.4" width="7.5" height="7.5" fill="#c7d5dc"/><rect x="151.1" y="188.4" width="7.5" height="7.5" fill="#7d9cab"/><rect x="163.4" y="188.4" width="7.5" height="7.5" fill="#355567"/><rect x="175.7" y="188.4" width="7.5" height="7.5" fill="#7d9cab"/><rect x="163.4" y="200.7" width="7.5" height="7.5" fill="#7d9cab"/><rect x="175.7" y="200.7" width="7.5" height="7.5" fill="#355567"/><rect x="188.0" y="200.7" width="7.5" height="7.5" fill="#7d9cab"/><rect x="175.7" y="213.0" width="7.5" height="7.5" fill="#7d9cab"/><rect x="188.0" y="213.0" width="7.5" height="7.5" fill="#355567"/><rect x="200.3" y="213.0" width="7.5" height="7.5" fill="#7d9cab"/><rect x="212.6" y="213.0" width="7.5" height="7.5" fill="#c7d5dc"/><rect x="188.0" y="225.3" width="7.5" height="7.5" fill="#7d9cab"/><rect x="200.3" y="225.3" width="7.5" height="7.5" fill="#355567"/><rect x="212.6" y="225.3" width="7.5" height="7.5" fill="#7d9cab"/><rect x="175.7" y="237.6" width="7.5" height="7.5" fill="#c7d5dc"/><rect x="200.3" y="237.6" width="7.5" height="7.5" fill="#7d9cab"/><rect x="212.6" y="237.6" width="7.5" height="7.5" fill="#355567"/><rect x="224.9" y="237.6" width="7.5" height="7.5" fill="#7d9cab"/><rect x="274.1" y="237.6" width="7.5" height="7.5" fill="#c7d5dc"/><rect x="212.6" y="249.9" width="7.5" height="7.5" fill="#7d9cab"/><rect x="224.9" y="249.9" width="7.5" height="7.5" fill="#355567"/><rect x="237.2" y="249.9" width="7.5" height="7.5" fill="#7d9cab"/><rect x="65.0" y="262.2" width="7.5" height="7.5" fill="#c7d5dc"/><rect x="188.0" y="262.2" width="7.5" height="7.5" fill="#c7d5dc"/><rect x="224.9" y="262.2" width="7.5" height="7.5" fill="#7d9cab"/><rect x="237.2" y="262.2" width="7.5" height="7.5" fill="#355567"/><rect x="249.5" y="262.2" width="7.5" height="7.5" fill="#7d9cab"/><rect x="237.2" y="274.5" width="7.5" height="7.5" fill="#7d9cab"/><rect x="249.5" y="274.5" width="7.5" height="7.5" fill="#355567"/><rect x="261.8" y="274.5" width="7.5" height="7.5" fill="#7d9cab"/><rect x="249.5" y="286.8" width="7.5" height="7.5" fill="#7d9cab"/><rect x="261.8" y="286.8" width="7.5" height="7.5" fill="#355567"/><rect x="274.1" y="286.8" width="7.5" height="7.5" fill="#7d9cab"/><rect x="114.2" y="299.1" width="7.5" height="7.5" fill="#c7d5dc"/><rect x="261.8" y="299.1" width="7.5" height="7.5" fill="#7d9cab"/><rect x="274.1" y="299.1" width="7.5" height="7.5" fill="#355567"/><rect x="286.4" y="299.1" width="7.5" height="7.5" fill="#7d9cab"/><rect x="212.6" y="311.4" width="7.5" height="7.5" fill="#c7d5dc"/><rect x="274.1" y="311.4" width="7.5" height="7.5" fill="#7d9cab"/><rect x="286.4" y="311.4" width="7.5" height="7.5" fill="#355567"/><line x1="370" y1="327" x2="581" y2="327" stroke="#7b95a2"/><line x1="370" y1="327" x2="370" y2="89" stroke="#7b95a2"/><polyline points="379.0,109.0 386.8,147.6 394.6,179.2 402.4,205.1 410.2,226.3 418.0,243.6 425.8,257.8 433.6,269.5 441.4,279.0 449.2,286.8 457.0,293.2 464.8,298.4 472.6,302.7 480.4,306.2 488.2,309.0 496.0,311.4 503.8,313.3 511.6,314.9 519.4,316.2 527.2,317.2 535.0,318.1 542.8,318.8 550.6,319.4 558.4,319.9 566.2,320.2 574.0,320.6" fill="none" stroke="#64899c" stroke-width="3"/><text x="382" y="76" font-size="12" fill="#355567" font-weight="normal" font-family="Arial,Helvetica,sans-serif">RESIDUAL DECAY</text><text x="448" y="351" font-size="12" fill="#8198a4" font-weight="normal" font-family="Arial,Helvetica,sans-serif">iteration</text><text x="63" y="376" font-size="11" fill="#8198a4" font-weight="normal" font-family="Arial,Helvetica,sans-serif">SCHEMATIC  ·  NO PERFORMANCE CLAIM</text>
</svg>