<svg xmlns="http://www.w3.org/2000/svg" width="640" height="400" viewBox="0 0 640 400" role="img">
<rect width="640" height="400" fill="#f4f7f8"/>
<rect x="90" y="70" width="462" height="256" fill="#e9eff2" stroke="#66808f" stroke-width="1.8"/><line x1="112" y1="71" x2="112" y2="325" stroke="#bbcad0" stroke-width=".7"/><line x1="134" y1="71" x2="134" y2="325" stroke="#bbcad0" stroke-width=".7"/><line x1="156" y1="71" x2="156" y2="325" stroke="#bbcad0" stroke-width=".7"/><line x1="178" y1="71" x2="178" y2="325" stroke="#bbcad0" stroke-width=".7"/><line x1="200" y1="71" x2="200" y2="325" stroke="#bbcad0" stroke-width=".7"/><line x1="222" y1="71" x2="222" y2="325" stroke="#bbcad0" stroke-width=".7"/><line x1="244" y1="71" x2="244" y2="325" stroke="#bbcad0" stroke-width=".7"/><line x1="266" y1="71" x2="266" y2="325" stroke="#bbcad0" stroke-width=".7"/><line x1="288" y1="71" x2="288" y2="325" stroke="#bbcad0" stroke-width=".7"/><line x1="310" y1="71" x2="310" y2="325" stroke="#bbcad0" stroke-width=".7"/><line x1="332" y1="71" x2="332" y2="325" stroke="#bbcad0" stroke-width=".7"/><line x1="354" y1="71" x2="354" y2="325" stroke="#bbcad0" stroke-width=".7"/><line x1="376" y1="71" x2="376" y2="325" stroke="#bbcad0" stroke-width=".7"/><line x1="398" y1="71" x2="398" y2="325" stroke="#bbcad0" stroke-width=".7"/><line x1="420" y1="71" x2="420" y2="325" stroke="#bbcad0" stroke-width=".7"/><line x1="442" y1="71" x2="442" y2="325" stroke="#bbcad0" stroke-width=".7"/><line x1="464" y1="71" x2="464" y2="325" stroke="#bbcad0" stroke-width=".7"/><line x1="486" y1="71" x2="486" y2="325" stroke="#bbcad0" stroke-width=".7"/><line x1="508" y1="71" x2="508" y2="325" stroke="#bbcad0" stroke-width=".7"/><line x1="530" y1="71" x2="530" y2="325" stroke="#bbcad0" stroke-width=".7"/><line x1="91" y1="82" x2="552" y2="82" stroke="#bbcad0" stroke-width=".7"/><line x1="91" y1="104" x2="552" y2="104" stroke="#bbcad0" stroke-width=".7"/><line x1="91" y1="126" x2="552" y2="126" stroke="#bbcad0" stroke-width=".7"/><line x1="91" y1="148" x2="552" y2="148" stroke="#bbcad0" stroke-width=".7"/><line x1="91" y1="170" x2="552" y2="170" stroke="#bbcad0" stroke-width=".7"/><line x1="91" y1="192" x2="552" y2="192" stroke="#bbcad0" stroke-width=".7"/><line x1="91" y1="214" x2="552" y2="214" stroke="#bbcad0" stroke-width=".7"/><line x1="91" y1="236" x2="552" y2="236" stroke="#bbcad0" stroke-width=".7"/><line x1="91" y1="258" x2="552" y2="258" stroke="#bbcad0" stroke-width=".7"/><line x1="91" y1="280" x2="552" y2="280" stroke="#bbcad0" stroke-width=".7"/><line x1="91" y1="302" x2="552" y2="302" stroke="#bbcad0" stroke-width=".7"/><line x1="91" y1="324" x2="552" y2="324" stroke="#bbcad0" stroke-width=".7"/><path d="M310 325 L298 298 L311 270 L293 247 L301 221 L285 199 L295 173 L281 151 L302 125 L295 70" fill="none" stroke="#cc8d83" stroke-width="12" stroke-linecap="round" opacity=".28"/><path d="M310 325 L298 298 L311 270 L293 247 L301 221 L285 199 L295 173 L281 151 L302 125 L295 70" fill="none" stroke="#a7625b" stroke-width="3" stroke-linejoin="round"/><path d="M70 100 V45 M70 45 l-7 12 m7-12 l7 12 M571 350 v-31 m0 31 l-7 -12 m7 12 l7 -12" fill="none" stroke="#5d7c8a" stroke-width="2"/><text x="90" y="45" font-size="15" fill="#355567" font-weight="bold" font-family="Arial,Helvetica,sans-serif">DIFFUSE-CRACK REPRESENTATION</text><text x="90" y="365" font-size="11" fill="#8198a4" font-weight="normal" font-family="Arial,Helvetica,sans-serif">SCHEMATIC  ·  NOT SIMULATION DATA</text>
</svg>